<svg xmlns="http://www.w3.org/2000/svg" width="430" height="430" fill="none" viewBox="0 0 430 430"><path fill="url(#_8xWUO_SIda)" fill-rule="evenodd" d="M53.5 215c0-89.194 72.306-161.5 161.5-161.5S376.5 125.806 376.5 215 304.194 376.5 215 376.5 53.5 304.194 53.5 215M215 41.5c-95.821 0-173.5 77.679-173.5 173.5S119.179 388.5 215 388.5 388.5 310.821 388.5 215 310.821 41.5 215 41.5m0 88.5a6 6 0 0 1 6 6v73h73a6 6 0 1 1 0 12h-73v73a6 6 0 1 1-12 0v-73h-73a6 6 0 1 1 0-12h73v-73a6 6 0 0 1 6-6" clip-rule="evenodd"/><defs><linearGradient id="_8xWUO_SIda" x1="155.012" x2="340.193" y1="118.561" y2="327.144" gradientUnits="userSpaceOnUse"><stop stop-color="#cb5eee"/><stop offset="1" stop-color="#4be1ec"/></linearGradient></defs></svg>